Coordinates
version=1
nRows=15
nColumns=38
inDegrees=yes

Units are S.I. units (second, meters, Newtons, ...)
Angles are in degrees.

endheader
time	pelvis_tilt	pelvis_list	pelvis_rotation	pelvis_tx	pelvis_ty	pelvis_tz	hip_flexion_r	hip_adduction_r	hip_rotation_r	knee_angle_r	ankle_angle_r	subtalar_angle_r	mtp_angle_r	hip_flexion_l	hip_adduction_l	hip_rotation_l	knee_angle_l	ankle_angle_l	subtalar_angle_l	mtp_angle_l	lumbar_extension	lumbar_bending	lumbar_rotation	arm_flex_r	arm_add_r	arm_rot_r	elbow_flex_r	pro_sup_r	wrist_flex_r	wrist_dev_r	arm_flex_l	arm_add_l	arm_rot_l	elbow_flex_l	pro_sup_l	wrist_flex_l	wrist_dev_l
      1.30000000	     -0.24206858	      2.74553998	     -6.70407007	     -0.08083860	      1.00909153	     -0.25375030	    -16.94297916	     -5.08903126	     -8.53862539	    -22.47468447	     -2.06041710	      6.36832805	      0.00000000	     26.93274624	      1.76808773	     -7.13877090	    -20.12518739	     -7.05557454	     -6.97277575	      0.00000000	     -6.71824700	     -3.38638520	      9.31702117	      6.47754013	     -9.47499864	     50.81411502	     24.51626412	     43.60227851	      0.00000000	      0.00000000	     -4.70997032	     -3.44255310	     48.88691500	     21.09836009	     43.60227851	      0.00000000	      0.00000000
      1.31000000	     -0.19342446	      3.16494798	     -6.43168095	     -0.06483460	      1.01167411	     -0.25509853	    -16.15881387	     -5.84297204	     -8.65058088	    -24.68911865	     -6.04407947	      5.99095204	      0.00000000	     26.59660228	      2.50911580	     -6.51471384	    -21.34182254	     -5.89236132	     -7.21584603	      0.00000000	     -6.47966099	     -3.82063637	      9.03471516	      5.88838902	     -9.18251256	     50.88115587	     24.44713237	     43.60904889	      0.00000000	      0.00000000	     -4.80855969	     -3.56664206	     48.88192134	     21.05845863	     43.60904889	      0.00000000	      0.00000000
      1.32000000	     -0.15567622	      3.51849361	     -6.23064990	     -0.04968822	      1.01428962	     -0.25639811	    -15.08664655	     -6.55352602	     -8.56367077	    -27.20583154	     -9.69600089	      5.60206905	      0.00000000	     26.06972866	      3.16104357	     -5.98675538	    -22.11642147	     -4.85802825	     -7.35158646	      0.00000000	     -6.33265667	     -4.20282372	      8.76682723	      5.37903405	     -8.93597916	     50.90888215	     24.31416083	     43.61642018	      0.00000000	      0.00000000	     -4.76635145	     -3.66431138	     48.86872169	     21.05242130	     43.61642018	      0.00000000	      0.00000000
      1.33000000	     -0.13167774	      3.85880924	     -5.98129674	     -0.03490100	      1.01697544	     -0.25780364	    -13.82251862	     -7.01229228	     -7.83526582	    -29.92865495	    -12.44794770	      4.28445086	      0.00000000	     25.39733261	      3.78565877	     -5.68257545	    -22.55930592	     -3.98379499	     -7.27880043	      0.00000000	     -6.27753591	     -4.53210538	      8.45535022	      4.98476183	     -8.67829756	     50.91169933	     24.11391318	     43.62807456	      0.00000000	      0.00000000	     -4.67910085	     -3.78838630	     48.84855338	     21.06999105	     43.62807456	      0.00000000	      0.00000000
      1.34000000	     -0.01601182	      4.01259983	     -5.82080719	     -0.02042833	      1.01976428	     -0.25888398	    -12.49809062	     -6.96993698	     -6.19446333	    -32.80102512	    -14.57402772	      1.87070978	      0.00000000	     24.48135073	      4.15951949	     -5.58786644	    -22.74551486	     -3.04212797	     -7.04533447	      0.00000000	     -6.37970429	     -4.69636753	      8.20272794	      4.65045556	     -8.33609293	     50.84322437	     23.81521784	     43.64431988	      0.00000000	      0.00000000	     -4.56811364	     -3.90832723	     48.82325656	     21.13595883	     43.64431988	      0.00000000	      0.00000000
      1.35000000	     -0.00729255	      3.89042999	     -5.36370061	     -0.00702694	      1.02230181	     -0.26024213	    -10.92509473	     -6.66356873	     -5.35195326	    -35.83586894	    -16.19679306	      0.35179796	      0.00000000	     23.65981926	      4.34751312	     -5.11606915	    -22.84818563	     -2.00132761	     -6.68994694	      0.00000000	     -6.55834809	     -4.54244194	      7.68642596	      4.53572067	     -8.13671787	     50.80722044	     23.69083178	     43.65286473	      0.00000000	      0.00000000	     -4.24866040	     -3.99000419	     48.78925508	     21.22051889	     43.65286473	      0.00000000	      0.00000000
      1.36000000	      0.15706142	      3.79414608	     -5.22243284	      0.00666435	      1.02511703	     -0.26122795	     -9.42969916	     -6.55237270	     -4.69410413	    -38.90763961	    -16.99630674	     -0.60355185	      0.00000000	     22.55506640	      4.46403325	     -4.97145741	    -22.75561646	     -1.08392649	     -6.42972452	      0.00000000	     -6.81438411	     -4.39680730	      7.41231761	      4.34200132	     -7.97681922	     50.78876298	     23.57949688	     43.65966702	      0.00000000	      0.00000000	     -4.03248520	     -4.05921689	     48.76617953	     21.29589556	     43.65966702	      0.00000000	      0.00000000
      1.37000000	      0.38708082	      3.68421107	     -5.12168049	      0.02012640	      1.02792576	     -0.26218913	     -7.96710461	     -6.55390140	     -4.47132477	    -41.94164616	    -16.83870677	     -1.39581250	      0.00000000	     21.32737609	      4.55499583	     -4.85555212	    -22.52684853	     -0.17887807	     -6.18668372	      0.00000000	     -7.15238469	     -4.23071732	      7.19124059	      4.22084238	     -7.85177746	     50.77715603	     23.50586076	     43.66483491	      0.00000000	      0.00000000	     -3.76152186	     -4.11980792	     48.74583173	     21.38672149	     43.66483491	      0.00000000	      0.00000000
      1.38000000	      0.62368365	      3.59484048	     -5.06588975	      0.03335947	      1.03064299	     -0.26299051	     -6.46059080	     -6.51438655	     -4.20223267	    -44.83466756	    -15.83686362	     -2.10807688	      0.00000000	     20.05469005	      4.63719013	     -4.80682131	    -22.18510395	      0.59302892	     -5.86382083	      0.00000000	     -7.50491886	     -4.11065474	      6.96998732	      4.09867524	     -7.73973820	     50.76374115	     23.42203846	     43.67116306	      0.00000000	      0.00000000	     -3.37828521	     -4.24869326	     48.71931160	     21.53129174	     43.67116306	      0.00000000	      0.00000000
      1.39000000	      0.80356038	      3.54291324	     -5.07400980	      0.04637136	      1.03314956	     -0.26368653	     -4.80948815	     -6.40416832	     -3.71754876	    -47.57642262	    -14.62694868	     -2.60136642	      0.00000000	     18.86001143	      4.69251709	     -5.03227184	    -21.83990092	      1.40572820	     -5.35640585	      0.00000000	     -7.76456627	     -4.01003762	      6.82011929	      4.04051433	     -7.57682539	     50.71443450	     23.23076844	     43.69169482	      0.00000000	      0.00000000	     -3.11713926	     -4.45578995	     48.73107404	     21.94837742	     43.69169482	      0.00000000	      0.00000000
      1.40000000	      1.03967937	      3.33379883	     -4.96472656	      0.05922989	      1.03576503	     -0.26442251	     -3.24856763	     -6.05242479	     -3.31032111	    -50.02050919	    -13.55187131	     -3.08921704	      0.00000000	     17.54973564	      4.68664314	     -4.76123274	    -21.40677457	      2.15194838	     -5.18209857	      0.00000000	     -8.11763772	     -3.73549688	      6.50336795	      4.07496995	     -7.50154352	     50.71523110	     23.22343892	     43.69701291	      0.00000000	      0.00000000	     -2.78555288	     -4.56471464	     48.70984833	     22.08446729	     43.69701291	      0.00000000	      0.00000000
      1.41000000	      1.21005682	      3.14026406	     -4.90578425	      0.07191969	      1.03823290	     -0.26502445	     -1.59335590	     -5.76887343	     -3.04318434	    -52.24339101	    -12.20145421	     -3.38020747	      0.00000000	     16.30413416	      4.65388728	     -4.61722798	    -20.93342988	      2.78838012	     -5.02736507	      0.00000000	     -8.38381753	     -3.48826359	      6.26041550	      4.08528586	     -7.44883783	     50.72639326	     23.21586667	     43.70311930	      0.00000000	      0.00000000	     -2.45229856	     -4.69840427	     48.69838471	     22.26177009	     43.70311930	      0.00000000	      0.00000000
      1.42000000	      1.27853129	      2.95380122	     -4.82521144	      0.08441156	      1.04045328	     -0.26565554	      0.10850914	     -5.50587654	     -2.93904714	    -54.17906255	    -10.78190790	     -3.54279287	      0.00000000	     15.12324855	      4.61828284	     -4.46537436	    -20.34833386	      3.38558624	     -4.83108951	      0.00000000	     -8.52761624	     -3.20891615	      5.98610169	      4.11381234	     -7.39268685	     50.74730345	     23.22568040	     43.70923294	      0.00000000	      0.00000000	     -2.08645143	     -4.86556919	     48.68973027	     22.46402561	     43.70923294	      0.00000000	      0.00000000
      1.43000000	      1.27963677	      2.74106580	     -4.69277427	      0.09675232	      1.04259307	     -0.26617134	      1.90526043	     -5.26021060	     -3.02811432	    -55.87822685	     -9.56996833	     -3.58319557	      0.00000000	     13.97523287	      4.53792352	     -4.31904898	    -19.66424746	      3.91443711	     -4.62038299	      0.00000000	     -8.56328951	     -2.91327880	      5.55669462	      4.18530007	     -7.31399025	     50.77553534	     23.25535065	     43.71488890	      0.00000000	      0.00000000	     -1.77411603	     -5.05435739	     48.68412071	     22.65865260	     43.71488890	      0.00000000	      0.00000000
      1.44000000	      1.23401358	      2.52932493	     -4.47865071	      0.10900884	      1.04457715	     -0.26675135	      3.70523802	     -4.92936517	     -3.08922949	    -57.28354729	     -8.42159542	     -3.69736072	      0.00000000	     12.85318013	      4.45560665	     -4.18506012	    -18.93124795	      4.39641815	     -4.39028838	      0.00000000	     -8.58487180	     -2.62106429	      5.17781692	      4.20324603	     -7.25418058	     50.80856046	     23.27808583	     43.71940271	      0.00000000	      0.00000000	     -1.38505013	     -5.27259905	     48.67948390	     22.85365899	     43.71940271	      0.00000000	      0.00000000
